<svg xmlns="http://www.w3.org/2000/svg" viewBox="0 0 2622 485" width="2622" height="485"><g fill="#000000"><path d="M262.973 380.885C234.431 374.293 204.871 373.387 175.979 378.219C147.087 383.051 119.43 393.527 94.587 409.048L142.012 484.959C156.887 475.666 173.446 469.394 190.744 466.501C208.042 463.608 225.741 464.15 242.83 468.097L262.973 380.885Z"/><path d="M354.829 325.877C329.986 341.397 308.443 361.659 291.431 385.506C274.418 409.352 262.269 436.316 255.677 464.857L342.889 485C346.836 467.911 354.11 451.767 364.296 437.49C374.482 423.212 387.38 411.081 402.255 401.788L354.829 325.877Z"/><path d="M380.885 222.027C374.293 250.569 373.387 280.129 378.219 309.021C383.051 337.913 393.527 365.57 409.048 390.413L484.959 342.988C475.666 328.113 469.394 311.554 466.501 294.256C463.608 276.957 464.15 259.259 468.097 242.17L380.885 222.027Z"/><path d="M325.877 130.171C341.397 155.014 361.659 176.557 385.506 193.569C409.352 210.582 436.316 222.731 464.857 229.323L485 142.111C467.911 138.164 451.767 130.89 437.49 120.704C423.212 110.518 411.081 97.6197 401.788 82.7453L325.877 130.171Z"/><path d="M222.027 104.115C250.569 110.707 280.129 111.613 309.021 106.781C337.913 101.949 365.57 91.4731 390.413 75.9524L342.988 0.0409594C328.113 9.33368 311.554 15.6057 294.256 18.4988C276.957 21.392 259.259 20.8497 242.17 16.9028L222.027 104.115Z"/><path d="M130.171 159.123C155.014 143.603 176.557 123.341 193.569 99.4944C210.582 75.6481 222.731 48.6843 229.323 20.1427L142.111 0C138.164 17.0887 130.89 33.2328 120.704 47.5103C110.518 61.7879 97.6197 73.9193 82.7453 83.212L130.171 159.123Z"/><path d="M104.115 262.973C110.707 234.431 111.613 204.871 106.781 175.979C101.949 147.087 91.473 119.43 75.9523 94.5871L0.0409368 142.012C9.33366 156.887 15.6057 173.446 18.4988 190.744C21.392 208.043 20.8497 225.741 16.9028 242.83L104.115 262.973Z"/><path d="M159.123 354.829C143.603 329.986 123.341 308.443 99.4944 291.431C75.6481 274.418 48.6843 262.269 20.1427 255.677L0 342.889C17.0887 346.836 33.2328 354.11 47.5103 364.296C61.7879 374.482 73.9193 387.38 83.212 402.255L159.123 354.829Z"/><path d="M693.3 392.15C663.6 392.15 636.3 385.25 611.4 371.45C586.8 357.65 567.15 338.45 552.45 313.85C538.05 288.95 530.85 261.05 530.85 230.15C530.85 199.25 538.05 171.5 552.45 146.9C567.15 122.3 586.8 103.1 611.4 89.3C636.3 75.5 663.6 68.6 693.3 68.6C723 68.6 750.15 75.5 774.75 89.3C799.65 103.1 819.15 122.3 833.25 146.9C847.65 171.5 854.85 199.25 854.85 230.15C854.85 261.05 847.65 288.95 833.25 313.85C818.85 338.45 799.35 357.65 774.75 371.45C750.15 385.25 723 392.15 693.3 392.15ZM693.3 321.95C718.5 321.95 738.6 313.55 753.6 296.75C768.9 279.95 776.55 257.75 776.55 230.15C776.55 202.25 768.9 180.05 753.6 163.55C738.6 146.75 718.5 138.35 693.3 138.35C667.8 138.35 647.4 146.6 632.1 163.1C617.1 179.6 609.6 201.95 609.6 230.15C609.6 258.05 617.1 280.4 632.1 297.2C647.4 313.7 667.8 321.95 693.3 321.95Z"/><path d="M882.36 263.45C882.36 237.35 887.61 214.55 898.11 195.05C908.91 175.55 923.76 160.55 942.66 150.05C961.86 139.55 983.76 134.3 1008.36 134.3C1039.86 134.3 1066.11 142.55 1087.11 159.05C1108.41 175.55 1122.36 198.8 1128.96 228.8H1047.06C1040.16 209.6 1026.81 200 1007.01 200C992.91 200 981.66 205.55 973.26 216.65C964.86 227.45 960.66 243.05 960.66 263.45C960.66 283.85 964.86 299.6 973.26 310.7C981.66 321.5 992.91 326.9 1007.01 326.9C1026.81 326.9 1040.16 317.3 1047.06 298.1H1128.96C1122.36 327.5 1108.41 350.6 1087.11 367.4C1065.81 384.2 1039.56 392.6 1008.36 392.6C983.76 392.6 961.86 387.35 942.66 376.85C923.76 366.35 908.91 351.35 898.11 331.85C887.61 312.35 882.36 289.55 882.36 263.45Z"/><path d="M1310.07 323.75V389H1270.92C1243.02 389 1221.27 382.25 1205.67 368.75C1190.07 354.95 1182.27 332.6 1182.27 301.7V201.8H1151.67V137.9H1182.27V76.7H1259.22V137.9H1309.62V201.8H1259.22V302.6C1259.22 310.1 1261.02 315.5 1264.62 318.8C1268.22 322.1 1274.22 323.75 1282.62 323.75H1310.07Z"/><path d="M1589.63 259.4C1589.63 266.6 1589.18 274.1 1588.28 281.9H1414.13C1415.33 297.5 1420.28 309.5 1428.98 317.9C1437.98 326 1448.93 330.05 1461.83 330.05C1481.03 330.05 1494.38 321.95 1501.88 305.75H1583.78C1579.58 322.25 1571.93 337.1 1560.83 350.3C1550.03 363.5 1536.38 373.85 1519.88 381.35C1503.38 388.85 1484.93 392.6 1464.53 392.6C1439.93 392.6 1418.03 387.35 1398.83 376.85C1379.63 366.35 1364.63 351.35 1353.83 331.85C1343.03 312.35 1337.63 289.55 1337.63 263.45C1337.63 237.35 1342.88 214.55 1353.38 195.05C1364.18 175.55 1379.18 160.55 1398.38 150.05C1417.58 139.55 1439.63 134.3 1464.53 134.3C1488.83 134.3 1510.43 139.4 1529.33 149.6C1548.23 159.8 1562.93 174.35 1573.43 193.25C1584.23 212.15 1589.63 234.2 1589.63 259.4ZM1510.88 239.15C1510.88 225.95 1506.38 215.45 1497.38 207.65C1488.38 199.85 1477.13 195.95 1463.63 195.95C1450.73 195.95 1439.78 199.7 1430.78 207.2C1422.08 214.7 1416.68 225.35 1414.58 239.15H1510.88Z"/><path d="M1707.18 56V389H1630.23V56H1707.18Z"/><path d="M1801.64 111.8C1788.14 111.8 1777.04 107.9 1768.34 100.1C1759.94 92 1755.74 82.1 1755.74 70.4C1755.74 58.4 1759.94 48.5 1768.34 40.7C1777.04 32.6 1788.14 28.55 1801.64 28.55C1814.84 28.55 1825.64 32.6 1834.04 40.7C1842.74 48.5 1847.09 58.4 1847.09 70.4C1847.09 82.1 1842.74 92 1834.04 100.1C1825.64 107.9 1814.84 111.8 1801.64 111.8ZM1839.89 137.9V389H1762.94V137.9H1839.89Z"/><path d="M2143.61 137.9V389H2066.66V354.8C2058.86 365.9 2048.21 374.9 2034.71 381.8C2021.51 388.4 2006.81 391.7 1990.61 391.7C1971.41 391.7 1954.46 387.5 1939.76 379.1C1925.06 370.4 1913.66 357.95 1905.56 341.75C1897.46 325.55 1893.41 306.5 1893.41 284.6V137.9H1969.91V274.25C1969.91 291.05 1974.26 304.1 1982.96 313.4C1991.66 322.7 2003.36 327.35 2018.06 327.35C2033.06 327.35 2044.91 322.7 2053.61 313.4C2062.31 304.1 2066.66 291.05 2066.66 274.25V137.9H2143.61Z"/><path d="M2519.28 135.2C2550.48 135.2 2575.23 144.65 2593.53 163.55C2612.13 182.45 2621.43 208.7 2621.43 242.3V389H2544.93V252.65C2544.93 236.45 2540.58 224 2531.88 215.3C2523.48 206.3 2511.78 201.8 2496.78 201.8C2481.78 201.8 2469.93 206.3 2461.23 215.3C2452.83 224 2448.63 236.45 2448.63 252.65V389H2372.13V252.65C2372.13 236.45 2367.78 224 2359.08 215.3C2350.68 206.3 2338.98 201.8 2323.98 201.8C2308.98 201.8 2297.13 206.3 2288.43 215.3C2280.03 224 2275.83 236.45 2275.83 252.65V389H2198.88V137.9H2275.83V169.4C2283.63 158.9 2293.83 150.65 2306.43 144.65C2319.03 138.35 2333.28 135.2 2349.18 135.2C2368.08 135.2 2384.88 139.25 2399.58 147.35C2414.58 155.45 2426.28 167 2434.68 182C2443.38 168.2 2455.23 156.95 2470.23 148.25C2485.23 139.55 2501.58 135.2 2519.28 135.2Z"/></g></svg>
